<svg width="84" height="84" viewBox="0 0 84 84" fill="none" xmlns="http://www.w3.org/2000/svg">
<path d="M50.6034 35.2169C50.7468 35.1213 50.8699 34.9983 50.9658 34.855C51.0617 34.7118 51.1284 34.551 51.1622 34.382C51.1959 34.213 51.1961 34.0389 51.1626 33.8698C51.1291 33.7007 51.0626 33.5399 50.9669 33.3965C50.8713 33.2531 50.7483 33.1299 50.605 33.034C50.4618 32.9382 50.301 32.8714 50.132 32.8377C49.963 32.8039 49.7889 32.8038 49.6198 32.8373C49.4507 32.8708 49.2899 32.9373 49.1465 33.0329C48.1967 33.6678 47.0799 34.0066 45.9374 34.0066C44.795 34.0066 43.6782 33.6678 42.7284 33.0329C42.4387 32.8397 42.0842 32.7695 41.7428 32.8377C41.4014 32.9059 41.1011 33.1069 40.9079 33.3965C40.7147 33.6861 40.6445 34.0406 40.7127 34.382C40.7809 34.7234 40.9819 35.0237 41.2715 35.2169C42.6521 36.1411 44.2761 36.6344 45.9374 36.6344C47.5988 36.6344 49.2227 36.1411 50.6034 35.2169Z" fill="url(#paint0_linear)"/>
<path d="M44.2311 66.398C44.4478 66.512 44.6921 66.563 44.9364 66.5454C45.1806 66.5278 45.4151 66.4422 45.6132 66.2982C45.8114 66.1543 45.9653 65.9578 46.0576 65.731C46.1499 65.5042 46.1769 65.256 46.1355 65.0147L45.7102 62.534L47.5123 60.7766C47.6855 60.6054 47.8076 60.3894 47.8651 60.1527C47.9225 59.916 47.913 59.6681 47.8375 59.4365C47.762 59.205 47.6237 58.999 47.4378 58.8416C47.252 58.6842 47.026 58.5816 46.7852 58.5454L44.2914 58.1818L43.1811 55.9125C43.0605 55.7078 42.8885 55.5382 42.6823 55.4203C42.476 55.3025 42.2426 55.2405 42.0051 55.2405C41.7675 55.2405 41.5341 55.3025 41.3278 55.4203C41.1216 55.5382 40.9497 55.7078 40.8291 55.9125L39.7134 58.17L37.2197 58.5335C36.9789 58.5698 36.7529 58.6724 36.5671 58.8298C36.3812 58.9872 36.2428 59.1932 36.1674 59.4247C36.0919 59.6563 36.0824 59.9042 36.1398 60.1409C36.1972 60.3776 36.3194 60.5936 36.4926 60.7648L38.2959 62.5222L37.8707 65.0029C37.8276 65.2442 37.8529 65.4929 37.9439 65.7206C38.0348 65.9483 38.1878 66.146 38.3853 66.2912C38.5829 66.4365 38.8172 66.5235 39.0617 66.5423C39.3062 66.5612 39.551 66.5112 39.7686 66.398L41.9998 65.2312L44.2311 66.398ZM40.9078 62.8372L40.9997 62.2965C41.0357 62.0868 41.0203 61.8716 40.9547 61.6692C40.889 61.4669 40.7752 61.2835 40.623 61.1349L40.2293 60.753L40.7713 60.6742C40.9817 60.6434 41.1814 60.562 41.3533 60.437C41.5253 60.3119 41.6642 60.1469 41.7583 59.9563L41.9998 59.4641L42.2439 59.9563C42.338 60.1469 42.477 60.3119 42.6489 60.437C42.8208 60.562 43.0206 60.6434 43.2309 60.6742L43.773 60.753L43.3792 61.1349C43.227 61.2835 43.1132 61.4669 43.0476 61.6692C42.982 61.8716 42.9665 62.0868 43.0026 62.2965L43.0944 62.8372L42.6101 62.5826C42.4218 62.4826 42.2118 62.4303 41.9985 62.4303C41.7852 62.4303 41.5752 62.4826 41.3869 62.5826L40.9078 62.8372Z" fill="url(#paint1_linear)"/>
<path d="M62.2793 60.7438C62.2035 60.5111 62.0641 60.3042 61.877 60.1464C61.6898 59.9887 61.4623 59.8865 61.2201 59.8513L58.7263 59.4877L57.6186 57.225C57.498 57.0203 57.326 56.8507 57.1198 56.7328C56.9136 56.615 56.6801 56.553 56.4426 56.553C56.205 56.553 55.9716 56.615 55.7653 56.7328C55.5591 56.8507 55.3872 57.0203 55.2666 57.225L54.1509 59.4825L51.6572 59.846C51.4164 59.8823 51.1904 59.9849 51.0046 60.1423C50.8187 60.2997 50.6803 60.5057 50.6049 60.7372C50.5294 60.9688 50.5199 61.2167 50.5773 61.4534C50.6347 61.6901 50.7569 61.9061 50.9301 62.0773L52.7334 63.8347L52.3082 66.3154C52.2651 66.5567 52.2904 66.8054 52.3814 67.0331C52.4723 67.2608 52.6253 67.4585 52.8228 67.6037C53.0204 67.749 53.2547 67.836 53.4992 67.8548C53.7437 67.8737 53.9885 67.8237 54.2061 67.7105L56.4373 66.5437L58.6686 67.7158C58.8853 67.8297 59.1296 67.8808 59.3739 67.8632C59.6181 67.8455 59.8526 67.7599 60.0507 67.616C60.2489 67.4721 60.4028 67.2756 60.4951 67.0487C60.5874 66.8219 60.6144 66.5738 60.573 66.3324L60.1478 63.8518L61.9498 62.0891C62.1247 61.9179 62.2482 61.7012 62.3064 61.4634C62.3647 61.2257 62.3552 60.9764 62.2793 60.7438ZM57.8168 62.45C57.6645 62.5986 57.5507 62.782 57.4851 62.9843C57.4195 63.1867 57.404 63.402 57.4401 63.6116L57.5319 64.1523L57.0476 63.8977C56.8593 63.7977 56.6493 63.7455 56.436 63.7455C56.2228 63.7455 56.0128 63.7977 55.8244 63.8977L55.3401 64.1523L55.4319 63.6116C55.468 63.402 55.4525 63.1867 55.3869 62.9843C55.3213 62.782 55.2075 62.5986 55.0553 62.45L54.6615 62.0681L55.2036 61.9894C55.4139 61.9586 55.6137 61.8771 55.7856 61.7521C55.9575 61.627 56.0965 61.4621 56.1906 61.2714L56.4373 60.7766L56.6814 61.2688C56.7755 61.4594 56.9145 61.6244 57.0864 61.7495C57.2583 61.8745 57.4581 61.9559 57.6684 61.9867L58.2105 62.0655L57.8168 62.45Z" fill="url(#paint2_linear)"/>
<path d="M33.4043 60.7438C33.3285 60.5111 33.1891 60.3042 33.002 60.1464C32.8148 59.9887 32.5873 59.8865 32.3451 59.8513L29.8513 59.4877L28.7436 57.225C28.623 57.0203 28.451 56.8507 28.2448 56.7328C28.0385 56.615 27.8051 56.553 27.5676 56.553C27.33 56.553 27.0966 56.615 26.8903 56.7328C26.6841 56.8507 26.5122 57.0203 26.3916 57.225L25.2759 59.4825L22.7822 59.846C22.5414 59.8823 22.3154 59.9849 22.1296 60.1423C21.9437 60.2997 21.8053 60.5057 21.7299 60.7372C21.6544 60.9688 21.6449 61.2167 21.7023 61.4534C21.7597 61.6901 21.8819 61.9061 22.0551 62.0773L23.8584 63.8347L23.4332 66.3154C23.3901 66.5567 23.4154 66.8054 23.5064 67.0331C23.5973 67.2608 23.7503 67.4585 23.9478 67.6037C24.1454 67.749 24.3797 67.836 24.6242 67.8548C24.8687 67.8737 25.1135 67.8237 25.3311 67.7105L27.5623 66.5437L29.7936 67.7158C30.0103 67.8297 30.2546 67.8808 30.4989 67.8632C30.7431 67.8455 30.9776 67.7599 31.1757 67.616C31.3739 67.4721 31.5278 67.2756 31.6201 67.0487C31.7124 66.8219 31.7394 66.5738 31.698 66.3324L31.2728 63.8518L33.0748 62.0891C33.2497 61.9179 33.3732 61.7012 33.4314 61.4634C33.4897 61.2257 33.4802 60.9764 33.4043 60.7438ZM28.9418 62.45C28.7895 62.5986 28.6757 62.782 28.6101 62.9843C28.5445 63.1867 28.529 63.402 28.5651 63.6116L28.6569 64.1523L28.1726 63.8977C27.9843 63.7977 27.7743 63.7455 27.561 63.7455C27.3477 63.7455 27.1377 63.7977 26.9494 63.8977L26.4651 64.1523L26.5569 63.6116C26.593 63.402 26.5775 63.1867 26.5119 62.9843C26.4463 62.782 26.3325 62.5986 26.1803 62.45L25.7865 62.0681L26.3286 61.9894C26.5389 61.9586 26.7387 61.8771 26.9106 61.7521C27.0825 61.627 27.2215 61.4621 27.3156 61.2714L27.5623 60.7766L27.8064 61.2688C27.9005 61.4594 28.0395 61.6244 28.2114 61.7495C28.3833 61.8745 28.5831 61.9559 28.7934 61.9867L29.3355 62.0655L28.9418 62.45Z" fill="url(#paint3_linear)"/>
<path d="M76.4924 72.2085L81.0861 66.4663C81.2604 66.2521 81.3626 65.9885 81.3783 65.7129C81.3941 65.4372 81.3225 65.1636 81.1738 64.931C81.025 64.6984 80.8068 64.5187 80.55 64.4173C80.2932 64.3159 80.011 64.298 79.7434 64.3663C77.6532 64.8802 75.5263 65.2312 73.3818 65.4163C73.2093 65.4311 73.0414 65.48 72.8879 65.56C72.7343 65.6399 72.5981 65.7495 72.4871 65.8824C72.3761 66.0152 72.2924 66.1687 72.241 66.3341C72.1896 66.4994 72.1713 66.6732 72.1874 66.8456C72.2007 67.0181 72.2483 67.1861 72.3275 67.3399C72.4067 67.4936 72.5159 67.63 72.6486 67.7409C72.7813 67.8518 72.9348 67.9351 73.1002 67.9858C73.2656 68.0365 73.4394 68.0536 73.6115 68.0361C74.6851 67.9403 75.7416 67.8103 76.7746 67.6423L73.7821 71.3829C73.5957 71.6157 73.4941 71.905 73.4941 72.2033C73.4941 72.5015 73.5957 72.7908 73.7821 73.0236L77.7196 77.9441C72.7765 78.9163 67.6993 78.9958 62.7282 78.1791L68.8969 74.655C69.0969 74.5396 69.2628 74.3735 69.378 74.1735C69.4932 73.9734 69.5536 73.7466 69.5532 73.5158V55.1408C69.5536 54.838 69.4492 54.5443 69.2579 54.3097C69.0665 54.075 68.7999 53.9137 68.5032 53.8532C67.9782 53.7495 67.4532 53.6576 66.9282 53.5592V51.1875C66.9247 48.0557 65.6791 45.0532 63.4646 42.8386C61.25 40.6241 58.2475 39.3785 55.1157 39.375H53.7783C55.4161 38.1574 56.7468 36.574 57.6643 34.751C58.5817 32.928 59.0605 30.9158 59.0624 28.875V28.8343C59.9101 27.7116 60.3706 26.3442 60.3749 24.9375V22.3125C60.3749 21.9644 60.2366 21.6306 59.9905 21.3844C59.7443 21.1383 59.4105 21 59.0624 21V17.0625C59.0579 13.2348 57.5353 9.56521 54.8288 6.85863C52.1222 4.15206 48.4526 2.62952 44.6249 2.625C44.2768 2.625 43.9429 2.76328 43.6968 3.00942C43.4507 3.25556 43.3124 3.5894 43.3124 3.9375C43.3124 4.2856 43.4507 4.61944 43.6968 4.86558C43.9429 5.11172 44.2768 5.25 44.6249 5.25C47.5294 5.25355 50.3312 6.32569 52.4961 8.2621C54.661 10.1985 56.0377 12.8638 56.3639 15.75H47.2499C45.51 15.7479 43.8421 15.0558 42.6118 13.8256C41.3815 12.5953 40.6895 10.9273 40.6874 9.1875C40.6874 8.8394 40.5491 8.50556 40.303 8.25942C40.0568 8.01328 39.723 7.875 39.3749 7.875C39.0268 7.875 38.6929 8.01328 38.4468 8.25942C38.2007 8.50556 38.0624 8.8394 38.0624 9.1875C38.0621 10.411 38.3071 11.6222 38.783 12.7494C39.2589 13.8766 39.956 14.8969 40.8331 15.75H40.6874C38.9475 15.7479 37.2795 15.0558 36.0493 13.8256C34.819 12.5953 34.127 10.9273 34.1249 9.1875C34.1249 8.8394 33.9866 8.50556 33.7405 8.25942C33.4943 8.01328 33.1605 7.875 32.8124 7.875C32.4643 7.875 32.1304 8.01328 31.8843 8.25942C31.6382 8.50556 31.4999 8.8394 31.4999 9.1875C31.4995 11.5947 32.4473 13.9052 34.138 15.6187C32.6542 15.317 31.3201 14.5122 30.3611 13.3404C29.4022 12.1686 28.8772 10.7017 28.8749 9.1875V5.25H39.3749C39.723 5.25 40.0568 5.11172 40.303 4.86558C40.5491 4.61944 40.6874 4.2856 40.6874 3.9375C40.6874 3.5894 40.5491 3.25556 40.303 3.00942C40.0568 2.76328 39.723 2.625 39.3749 2.625H27.5624C27.2143 2.625 26.8804 2.76328 26.6343 3.00942C26.3882 3.25556 26.2499 3.5894 26.2499 3.9375V9.1875C26.253 11.6232 27.222 13.9583 28.9443 15.6806C30.6666 17.4029 33.0017 18.3719 35.4374 18.375H56.4374V21H32.8124C32.4643 21 32.1304 21.1383 31.8843 21.3844C31.6382 21.6306 31.4999 21.9644 31.4999 22.3125V24.9375C31.5041 26.3442 31.9647 27.7116 32.8124 28.8343V28.875C32.8154 31.176 33.4233 33.4357 34.5751 35.4276C35.7269 37.4196 37.3822 39.0737 39.3749 40.2242V42C39.3749 43.7405 40.0663 45.4097 41.297 46.6404C42.5277 47.8711 44.1969 48.5625 45.9374 48.5625C47.6779 48.5625 49.3471 47.8711 50.5778 46.6404C51.8085 45.4097 52.4999 43.7405 52.4999 42H55.1249C57.5606 42.0031 59.8957 42.9721 61.618 44.6944C63.3403 46.4167 64.3093 48.7518 64.3124 51.1875V53.0959C52.2762 51.0667 40.0195 50.6896 27.8813 51.975L27.5624 51.4972V51.1875C27.5663 49.1711 28.2327 47.2118 29.459 45.6111C30.6852 44.0104 32.4035 42.8569 34.3493 42.3281C34.5195 42.2867 34.6798 42.2117 34.8205 42.1074C34.9613 42.0031 35.0797 41.8717 35.1689 41.7209C35.2581 41.5701 35.3162 41.403 35.3397 41.2294C35.3633 41.0558 35.3519 40.8792 35.3061 40.7101C35.2604 40.541 35.1813 40.3828 35.0734 40.2447C34.9656 40.1067 34.8312 39.9916 34.6781 39.9063C34.5251 39.8211 34.3566 39.7673 34.1824 39.7481C34.0083 39.729 33.8321 39.745 33.6642 39.795C31.6656 40.3389 29.8447 41.3978 28.3836 42.8658C26.9224 44.3339 25.8721 46.1597 25.3377 48.1609L22.6943 44.1945C22.6367 43.1084 22.3544 42.0461 21.8653 41.0747C21.3762 40.1033 20.6909 39.2439 19.8528 38.5508C20.6035 38.0812 21.2228 37.4289 21.653 36.6549C22.0831 35.8809 22.31 35.0105 22.3124 34.125V23.625C22.3124 22.2326 21.7593 20.8973 20.7747 19.9127C19.7901 18.9281 18.4548 18.375 17.0624 18.375H11.8124C10.42 18.375 9.08463 18.9281 8.10007 19.9127C7.1155 20.8973 6.56238 22.2326 6.56238 23.625V33.6879C5.75048 33.6502 4.9482 33.8764 4.27557 34.3327C3.60294 34.7889 3.0961 35.4507 2.8309 36.219C2.56569 36.9873 2.55637 37.8208 2.80432 38.5948C3.05228 39.3688 3.54418 40.0418 4.20644 40.5129L10.0851 44.7129C11.1968 45.5107 12.531 45.9391 13.8993 45.9375H20.7006L24.9518 52.3136C23.2106 52.5368 21.4702 52.7949 19.7307 53.088L17.0269 48.2186C16.8541 47.9218 16.5718 47.7046 16.2406 47.6136C15.9094 47.5226 15.5557 47.565 15.2554 47.7318C14.9552 47.8986 14.7323 48.1765 14.6345 48.5057C14.5368 48.835 14.572 49.1895 14.7327 49.4931L17.0007 53.5762C16.498 53.6707 15.994 53.7587 15.4926 53.8584C15.1959 53.919 14.9293 54.0803 14.738 54.3149C14.5466 54.5496 14.4423 54.8432 14.4426 55.146V65.5817C11.0117 65.5988 7.59179 65.1928 4.26025 64.3729C3.99384 64.3064 3.71327 64.3251 3.45805 64.4264C3.20284 64.5278 2.98583 64.7066 2.83759 64.9377C2.68934 65.1688 2.61732 65.4407 2.63167 65.7149C2.64602 65.9891 2.74601 66.2519 2.91757 66.4663L7.51132 72.2085L2.91757 77.9507C2.78042 78.1225 2.68862 78.326 2.65061 78.5425C2.61259 78.7591 2.62957 78.9817 2.69999 79.1899C2.77041 79.3982 2.89202 79.5854 3.05364 79.7344C3.21526 79.8835 3.41173 79.9895 3.625 80.0428C10.7282 81.8121 18.157 81.8121 25.2603 80.0428C25.5431 79.971 25.794 79.807 25.9732 79.5767C26.1525 79.3463 26.2498 79.0628 26.2499 78.771V73.1942C29.7936 72.765 33.3623 72.4671 36.9192 72.3293C37.2669 72.3159 37.5951 72.1651 37.8316 71.9098C38.0681 71.6546 38.1936 71.3159 38.1805 70.9682C38.1641 70.6215 38.0124 70.2952 37.7578 70.0593C37.5033 69.8234 37.1663 69.6969 36.8194 69.7069C30.1876 69.9722 23.5841 70.7241 17.0624 71.9565V56.2262C33.5359 53.0526 50.4638 53.0526 66.9374 56.2262V71.9447C58.7149 70.3975 50.3667 69.6154 41.9999 69.6084C41.6518 69.6084 41.3179 69.7467 41.0718 69.9929C40.8257 70.239 40.6874 70.5728 40.6874 70.9209C40.6874 71.269 40.8257 71.6029 41.0718 71.849C41.3179 72.0952 41.6518 72.2334 41.9999 72.2334C47.2648 72.2468 52.5242 72.5751 57.7499 73.2165V78.771C57.7503 79.0635 57.8484 79.3476 58.0286 79.578C58.2088 79.8084 58.4609 79.972 58.7448 80.0428C65.848 81.8121 73.2768 81.8121 80.38 80.0428C80.5933 79.9895 80.7898 79.8835 80.9514 79.7344C81.113 79.5854 81.2346 79.3982 81.305 79.1899C81.3754 78.9817 81.3924 78.7591 81.3544 78.5425C81.3164 78.326 81.2246 78.1225 81.0874 77.9507L76.4924 72.2085ZM56.8416 27.4234L53.0433 23.625H57.7499V24.9375C57.7461 25.8466 57.4248 26.7259 56.8416 27.4234ZM49.8749 24.1684L54.5106 28.8041C53.9433 28.914 53.3586 28.8962 52.799 28.7521C52.2393 28.6081 51.7188 28.3413 51.275 27.9711C50.8312 27.601 50.4753 27.1367 50.2332 26.612C49.991 26.0874 49.8686 25.5154 49.8749 24.9375V24.1684ZM34.1249 24.9375V24.1684L38.7606 28.8041C38.1933 28.914 37.6086 28.8962 37.049 28.7521C36.4893 28.6081 35.9688 28.3413 35.525 27.9711C35.0812 27.601 34.7253 27.1367 34.4832 26.612C34.241 26.0874 34.1186 25.5154 34.1249 24.9375ZM41.0916 27.4234L37.2933 23.625H41.9999V24.9375C41.9961 25.8466 41.6748 26.7259 41.0916 27.4234ZM35.6618 31.0301C36.425 31.3373 37.2397 31.4968 38.0624 31.5C39.8022 31.4979 41.4702 30.8058 42.7005 29.5756C43.9307 28.3453 44.6228 26.6773 44.6249 24.9375V23.625H47.2499V24.9375C47.252 26.6773 47.944 28.3453 49.1743 29.5756C50.4046 30.8058 52.0725 31.4979 53.8124 31.5C54.6351 31.4968 55.4497 31.3373 56.2129 31.0301C55.7174 33.3884 54.4257 35.5045 52.5547 37.0232C50.6836 38.5419 48.3472 39.3708 45.9374 39.3708C43.5276 39.3708 41.1911 38.5419 39.3201 37.0232C37.4491 35.5045 36.1574 33.3884 35.6618 31.0301ZM45.9374 45.9375C44.8931 45.9375 43.8916 45.5227 43.1532 44.7842C42.4147 44.0458 41.9999 43.0443 41.9999 42V41.3949C44.5629 42.2017 47.3119 42.2017 49.8749 41.3949V42C49.8749 43.0443 49.46 44.0458 48.7216 44.7842C47.9832 45.5227 46.9817 45.9375 45.9374 45.9375ZM19.6874 23.625V25.7066L14.9808 21H17.0624C17.7586 21 18.4263 21.2766 18.9185 21.7688C19.4108 22.2611 19.6874 22.9288 19.6874 23.625ZM9.18738 23.625C9.18809 23.015 9.40125 22.4242 9.79023 21.9543C10.1792 21.4843 10.7197 21.1646 11.3189 21.0499L19.6874 29.4184V34.125C19.6874 34.8212 19.4108 35.4889 18.9185 35.9812C18.4263 36.4734 17.7586 36.75 17.0624 36.75H12.5802L9.27794 34.7681C9.22086 34.5584 9.19043 34.3423 9.18738 34.125V23.625ZM13.8993 43.3125C13.0782 43.3141 12.2774 43.0574 11.6103 42.5788L5.73157 38.3788C5.48952 38.2063 5.32367 37.9468 5.26882 37.6547C5.21397 37.3626 5.27436 37.0606 5.43735 36.812C5.60033 36.5635 5.85323 36.3877 6.143 36.3216C6.43277 36.2554 6.73689 36.3041 6.99157 36.4573L11.5407 39.1873C11.7446 39.3105 11.9784 39.3755 12.2166 39.375H14.8416C16.0052 39.3763 17.1354 39.7636 18.0553 40.4762C18.9752 41.1887 19.6327 42.1862 19.9249 43.3125H13.8993ZM6.27494 77.9494L10.2124 73.0288C10.3988 72.796 10.5004 72.5067 10.5004 72.2085C10.5004 71.9103 10.3988 71.621 10.2124 71.3882L7.22913 67.6594C9.61301 68.0388 12.0235 68.2262 14.4374 68.2198V73.521C14.4369 73.7518 14.4974 73.9787 14.6126 74.1787C14.7278 74.3787 14.8937 74.5448 15.0936 74.6602L21.2624 78.1843C16.2925 79.0006 11.2167 78.921 6.27494 77.9494ZM23.6249 76.5096L19.5561 74.1877C20.9063 73.9541 22.2625 73.7411 23.6249 73.5486V76.5096ZM64.4358 74.1891L60.3749 76.5096V73.5236C61.7346 73.7139 63.0839 73.9567 64.4358 74.1891Z" fill="url(#paint4_linear)"/>
<path d="M14.4375 34.125C15.1624 34.125 15.75 33.5374 15.75 32.8125C15.75 32.0876 15.1624 31.5 14.4375 31.5C13.7126 31.5 13.125 32.0876 13.125 32.8125C13.125 33.5374 13.7126 34.125 14.4375 34.125Z" fill="url(#paint5_linear)"/>
<path d="M10.5682 14.8526C10.6782 15.1833 10.9151 15.4567 11.2267 15.6128C11.5383 15.7688 11.8991 15.7947 12.2298 15.6847C12.5605 15.5747 12.834 15.3378 12.99 15.0262C13.1461 14.7146 13.172 14.3538 13.062 14.0231L11.7495 10.0856C11.6395 9.75488 11.4026 9.48143 11.091 9.32538C10.7794 9.16933 10.4185 9.14345 10.0878 9.25345C9.75714 9.36345 9.48369 9.60031 9.32764 9.91192C9.17158 10.2235 9.14571 10.5844 9.25571 10.9151L10.5682 14.8526Z" fill="url(#paint6_linear)"/>
<path d="M16.6477 15.6821C16.9777 15.7918 17.3377 15.7661 17.6488 15.6106C17.9599 15.455 18.1965 15.1824 18.3067 14.8526L19.6192 10.9151C19.6736 10.7513 19.6953 10.5785 19.683 10.4063C19.6706 10.2342 19.6245 10.0662 19.5473 9.91192C19.47 9.75763 19.3631 9.62006 19.2326 9.50708C19.1022 9.3941 18.9508 9.30792 18.7871 9.25345C18.6233 9.19898 18.4504 9.1773 18.2783 9.18964C18.1062 9.20199 17.9382 9.24811 17.7839 9.32538C17.6296 9.40265 17.492 9.50955 17.3791 9.63999C17.2661 9.77042 17.1799 9.92183 17.1254 10.0856L15.8129 14.0231C15.7587 14.1868 15.7373 14.3596 15.7499 14.5317C15.7625 14.7037 15.8089 14.8715 15.8865 15.0256C15.964 15.1797 16.0711 15.317 16.2017 15.4296C16.3323 15.5422 16.4839 15.628 16.6477 15.6821Z" fill="url(#paint7_linear)"/>
<path d="M5.38763 16.3363C5.46467 16.4905 5.57135 16.6281 5.70156 16.7411C5.83178 16.8542 5.98298 16.9405 6.14654 16.9951C6.3101 17.0497 6.48281 17.0715 6.65481 17.0594C6.82681 17.0472 6.99474 17.0013 7.149 16.9243C7.30327 16.8472 7.44084 16.7405 7.55388 16.6103C7.66691 16.4801 7.7532 16.3289 7.8078 16.1653C7.8624 16.0018 7.88425 15.8291 7.8721 15.6571C7.85995 15.4851 7.81405 15.3171 7.737 15.1629L6.4245 12.5379C6.34746 12.3836 6.24078 12.246 6.11057 12.133C5.98036 12.02 5.82915 11.9337 5.66559 11.8791C5.50204 11.8245 5.32932 11.8026 5.15732 11.8148C4.98532 11.8269 4.81739 11.8728 4.66313 11.9499C4.50887 12.0269 4.37129 12.1336 4.25825 12.2638C4.14522 12.394 4.05894 12.5452 4.00433 12.7088C3.94973 12.8724 3.92788 13.0451 3.94003 13.2171C3.95218 13.3891 3.99808 13.557 4.07513 13.7113L5.38763 16.3363Z" fill="url(#paint8_linear)"/>
<path d="M22.3125 17.0622C22.6605 17.0622 22.9943 16.9238 23.2404 16.6777L24.5529 15.3652C24.792 15.1176 24.9243 14.7861 24.9213 14.442C24.9183 14.0978 24.7803 13.7686 24.5369 13.5253C24.2936 13.2819 23.9644 13.1439 23.6202 13.1409C23.2761 13.1379 22.9446 13.2702 22.697 13.5093L21.3845 14.8218C21.201 15.0054 21.0761 15.2392 21.0254 15.4938C20.9748 15.7483 21.0008 16.0122 21.1001 16.252C21.1995 16.4918 21.3676 16.6967 21.5834 16.841C21.7992 16.9852 22.0529 17.0622 22.3125 17.0622Z" fill="url(#paint9_linear)"/>
<defs>
<linearGradient id="paint0_linear" x1="45.9374" y1="32.8123" x2="45.9374" y2="36.6344" gradientUnits="userSpaceOnUse">
<stop stop-color="#1FD0FF"/>
<stop offset="1" stop-color="#3B9FFF"/>
</linearGradient>
<linearGradient id="paint1_linear" x1="42.0024" y1="55.2405" x2="42.0024" y2="66.5488" gradientUnits="userSpaceOnUse">
<stop stop-color="#1FD0FF"/>
<stop offset="1" stop-color="#3B9FFF"/>
</linearGradient>
<linearGradient id="paint2_linear" x1="56.4422" y1="56.553" x2="56.4422" y2="67.8666" gradientUnits="userSpaceOnUse">
<stop stop-color="#1FD0FF"/>
<stop offset="1" stop-color="#3B9FFF"/>
</linearGradient>
<linearGradient id="paint3_linear" x1="27.5672" y1="56.553" x2="27.5672" y2="67.8666" gradientUnits="userSpaceOnUse">
<stop stop-color="#1FD0FF"/>
<stop offset="1" stop-color="#3B9FFF"/>
</linearGradient>
<linearGradient id="paint4_linear" x1="42.0027" y1="2.625" x2="42.0027" y2="81.3698" gradientUnits="userSpaceOnUse">
<stop stop-color="#1FD0FF"/>
<stop offset="1" stop-color="#3B9FFF"/>
</linearGradient>
<linearGradient id="paint5_linear" x1="14.4375" y1="31.5" x2="14.4375" y2="34.125" gradientUnits="userSpaceOnUse">
<stop stop-color="#1FD0FF"/>
<stop offset="1" stop-color="#3B9FFF"/>
</linearGradient>
<linearGradient id="paint6_linear" x1="11.1588" y1="9.18628" x2="11.1588" y2="15.7519" gradientUnits="userSpaceOnUse">
<stop stop-color="#1FD0FF"/>
<stop offset="1" stop-color="#3B9FFF"/>
</linearGradient>
<linearGradient id="paint7_linear" x1="17.7164" y1="9.18628" x2="17.7164" y2="15.7491" gradientUnits="userSpaceOnUse">
<stop stop-color="#1FD0FF"/>
<stop offset="1" stop-color="#3B9FFF"/>
</linearGradient>
<linearGradient id="paint8_linear" x1="5.90607" y1="11.8115" x2="5.90607" y2="17.0626" gradientUnits="userSpaceOnUse">
<stop stop-color="#1FD0FF"/>
<stop offset="1" stop-color="#3B9FFF"/>
</linearGradient>
<linearGradient id="paint9_linear" x1="22.9608" y1="13.1409" x2="22.9608" y2="17.0622" gradientUnits="userSpaceOnUse">
<stop stop-color="#1FD0FF"/>
<stop offset="1" stop-color="#3B9FFF"/>
</linearGradient>
</defs>
</svg>
