<svg width="84" height="84" viewBox="0 0 84 84" fill="none" xmlns="http://www.w3.org/2000/svg">
<path d="M81.8837 30.5494L77.6566 26.8964C77.1323 26.4429 76.3393 26.5009 75.886 27.0255C75.4327 27.55 75.4903 28.3428 76.0152 28.7961L80.2419 32.4491C81.7486 33.7513 81.915 36.0365 80.613 37.5433L53.1576 69.3117C52.7043 69.8362 52.7619 70.6289 53.2866 71.0824C53.524 71.2876 53.8162 71.388 54.1069 71.388C54.4592 71.388 54.8091 71.2407 55.0573 70.9536L82.5125 39.1849C84.72 36.6307 84.4378 32.7567 81.8837 30.5494Z" fill="url(#paint0_linear)"/>
<path d="M74.4419 24.1176L54.8883 7.21902C53.6509 6.14966 52.071 5.62679 50.4402 5.74492C48.8091 5.86353 47.322 6.61051 46.2527 7.84771L44.3896 10.0035C43.9363 10.5282 43.9939 11.3209 44.5185 11.7742C45.0434 12.2278 45.836 12.1698 46.2893 11.6453L48.1524 9.48948C48.7832 8.75973 49.6604 8.31906 50.6226 8.249C51.5849 8.17829 52.5166 8.48771 53.2465 9.11853L72.8001 26.0171C73.0375 26.2224 73.3297 26.3228 73.6204 26.3228C73.9727 26.3228 74.3226 26.1754 74.5708 25.8883C75.024 25.3637 74.9664 24.5709 74.4419 24.1176Z" fill="url(#paint1_linear)"/>
<path d="M62.524 19.6797L28.6963 8.33348C25.4953 7.25985 22.0183 8.99055 20.9449 12.1911L20.4986 13.5215C20.2781 14.1787 20.6323 14.8904 21.2897 15.1109C21.9471 15.3314 22.6585 14.9774 22.8792 14.3198L23.3254 12.9894C23.9587 11.1012 26.0096 10.0803 27.898 10.7137L61.7259 22.0598C63.6141 22.6932 64.6349 24.7443 64.0016 26.6324L48.2626 73.5575C48.0421 74.2147 48.3963 74.9263 49.0537 75.1469C49.1861 75.1912 49.3206 75.2124 49.453 75.2124C49.9777 75.2124 50.4669 74.8808 50.6431 74.356L66.3821 27.431C67.4554 24.2306 65.7249 20.7532 62.524 19.6797Z" fill="url(#paint2_linear)"/>
<path d="M41.8023 16.5327H6.12248C2.74657 16.5327 0 19.2791 0 22.655V72.1493C0 75.5252 2.74657 78.2717 6.12248 78.2717H41.8025C45.1784 78.2717 47.925 75.5252 47.925 72.1493V22.655C47.9248 19.2791 45.1784 16.5327 41.8023 16.5327ZM45.414 72.1493C45.414 74.1408 43.7937 75.7609 41.8023 75.7609H6.12248C4.13093 75.7609 2.51081 74.1406 2.51081 72.1493V22.655C2.51081 20.6635 4.13109 19.0434 6.12248 19.0434H41.8025C43.794 19.0434 45.4141 20.6636 45.4141 22.655V72.1493H45.414Z" fill="url(#paint3_linear)"/>
<path d="M42.4557 51.1809H5.46915C4.77582 51.1809 4.21375 51.743 4.21375 52.4363C4.21375 53.1296 4.77582 53.6917 5.46915 53.6917H42.4559C43.1492 53.6917 43.7113 53.1296 43.7113 52.4363C43.7111 51.743 43.149 51.1809 42.4557 51.1809Z" fill="url(#paint4_linear)"/>
<path d="M36.6034 58.3601H21.0578C20.3644 58.3601 19.8024 58.9222 19.8024 59.6155C19.8024 60.3088 20.3644 60.8709 21.0578 60.8709H36.6034C37.2967 60.8709 37.8588 60.3088 37.8588 59.6155C37.8588 58.9222 37.2967 58.3601 36.6034 58.3601Z" fill="url(#paint5_linear)"/>
<path d="M16.873 58.3601H11.3213C10.628 58.3601 10.0659 58.9222 10.0659 59.6155C10.0659 60.3088 10.628 60.8709 11.3213 60.8709H16.873C17.5664 60.8709 18.1284 60.3088 18.1284 59.6155C18.1284 58.9222 17.5664 58.3601 16.873 58.3601Z" fill="url(#paint6_linear)"/>
<path d="M36.6034 63.1592H11.3213C10.628 63.1592 10.0659 63.7213 10.0659 64.4146C10.0659 65.1079 10.628 65.67 11.3213 65.67H36.6034C37.2967 65.67 37.8588 65.1079 37.8588 64.4146C37.8588 63.7211 37.2967 63.1592 36.6034 63.1592Z" fill="url(#paint7_linear)"/>
<path d="M36.6034 67.958H11.3213C10.628 67.958 10.0659 68.5201 10.0659 69.2134C10.0659 69.9067 10.628 70.4688 11.3213 70.4688H36.6034C37.2967 70.4688 37.8588 69.9067 37.8588 69.2134C37.8588 68.5201 37.2967 67.958 36.6034 67.958Z" fill="url(#paint8_linear)"/>
<path d="M37.76 31.0982C37.6123 30.6437 37.2195 30.3125 36.7467 30.2439L28.6908 29.0733L25.0881 21.7734C24.8765 21.3448 24.4402 21.0735 23.9623 21.0735C23.4846 21.0735 23.0482 21.3448 22.8365 21.7734L19.2337 29.0733L11.1777 30.2439C10.7049 30.3125 10.312 30.6437 10.1645 31.0982C10.0168 31.5526 10.14 32.0514 10.4821 32.3849L16.3116 38.0671L14.9354 46.0907C14.8547 46.5616 15.0483 47.0375 15.4348 47.3184C15.6535 47.4772 15.9126 47.5581 16.1728 47.5581C16.3725 47.5581 16.5731 47.5104 16.7569 47.414L23.9623 43.6257L31.1678 47.414C31.5907 47.6364 32.1033 47.5993 32.4898 47.3184C32.8765 47.0375 33.0699 46.5616 32.9892 46.0907L31.613 38.0671L37.4423 32.3849C37.7844 32.0514 37.9076 31.5526 37.76 31.0982ZM29.388 36.73C29.0921 37.0184 28.957 37.434 29.0269 37.8412L30.0846 44.0081L24.5464 41.0963C24.1805 40.9042 23.7436 40.9042 23.3781 41.0963L17.8398 44.0081L18.8975 37.8412C18.9673 37.434 18.8324 37.0184 18.5364 36.73L14.0561 32.3626L20.2479 31.4627C20.6568 31.4034 21.0102 31.1466 21.1931 30.776L23.9621 25.165L26.7312 30.776C26.914 31.1464 27.2675 31.4034 27.6764 31.4627L33.8684 32.3626L29.388 36.73Z" fill="url(#paint9_linear)"/>
<defs>
<linearGradient id="paint0_linear" x1="68.426" y1="26.5908" x2="68.426" y2="71.388" gradientUnits="userSpaceOnUse">
<stop stop-color="#FA00FF"/>
<stop offset="1" stop-color="#740076"/>
</linearGradient>
<linearGradient id="paint1_linear" x1="59.4802" y1="5.72852" x2="59.4802" y2="26.3228" gradientUnits="userSpaceOnUse">
<stop stop-color="#FA00FF"/>
<stop offset="1" stop-color="#740076"/>
</linearGradient>
<linearGradient id="paint2_linear" x1="43.5667" y1="8.01514" x2="43.5667" y2="75.2124" gradientUnits="userSpaceOnUse">
<stop stop-color="#FA00FF"/>
<stop offset="1" stop-color="#740076"/>
</linearGradient>
<linearGradient id="paint3_linear" x1="23.9625" y1="16.5327" x2="23.9625" y2="78.2717" gradientUnits="userSpaceOnUse">
<stop stop-color="#FA00FF"/>
<stop offset="1" stop-color="#740076"/>
</linearGradient>
<linearGradient id="paint4_linear" x1="23.9625" y1="51.1809" x2="23.9625" y2="53.6917" gradientUnits="userSpaceOnUse">
<stop stop-color="#FA00FF"/>
<stop offset="1" stop-color="#740076"/>
</linearGradient>
<linearGradient id="paint5_linear" x1="28.8306" y1="58.3601" x2="28.8306" y2="60.8709" gradientUnits="userSpaceOnUse">
<stop stop-color="#FA00FF"/>
<stop offset="1" stop-color="#740076"/>
</linearGradient>
<linearGradient id="paint6_linear" x1="14.0972" y1="58.3601" x2="14.0972" y2="60.8709" gradientUnits="userSpaceOnUse">
<stop stop-color="#FA00FF"/>
<stop offset="1" stop-color="#740076"/>
</linearGradient>
<linearGradient id="paint7_linear" x1="23.9623" y1="63.1592" x2="23.9623" y2="65.67" gradientUnits="userSpaceOnUse">
<stop stop-color="#FA00FF"/>
<stop offset="1" stop-color="#740076"/>
</linearGradient>
<linearGradient id="paint8_linear" x1="23.9623" y1="67.958" x2="23.9623" y2="70.4688" gradientUnits="userSpaceOnUse">
<stop stop-color="#FA00FF"/>
<stop offset="1" stop-color="#740076"/>
</linearGradient>
<linearGradient id="paint9_linear" x1="23.9622" y1="21.0735" x2="23.9622" y2="47.5582" gradientUnits="userSpaceOnUse">
<stop stop-color="#FA00FF"/>
<stop offset="1" stop-color="#740076"/>
</linearGradient>
</defs>
</svg>
