<svg width="84" height="84" viewBox="0 0 84 84" fill="none" xmlns="http://www.w3.org/2000/svg">
<path d="M48.5625 70.875H45.9375V58.0125C45.9375 57.6644 45.7992 57.3306 45.5531 57.0844C45.3069 56.8383 44.9731 56.7 44.625 56.7C44.2769 56.7 43.9431 56.8383 43.6969 57.0844C43.4508 57.3306 43.3125 57.6644 43.3125 58.0125V70.875H9.1875V44.625H20.1075C20.4556 44.625 20.7894 44.4867 21.0356 44.2406C21.2817 43.9944 21.42 43.6606 21.42 43.3125C21.42 42.9644 21.2817 42.6306 21.0356 42.3844C20.7894 42.1383 20.4556 42 20.1075 42H7.875C7.5269 42 7.19306 42.1383 6.94692 42.3844C6.70078 42.6306 6.5625 42.9644 6.5625 43.3125V70.875H3.9375C3.5894 70.875 3.25556 71.0133 3.00942 71.2594C2.76328 71.5056 2.625 71.8394 2.625 72.1875V74.8125C2.625 76.553 3.3164 78.2222 4.54711 79.4529C5.77782 80.6836 7.44702 81.375 9.1875 81.375H43.3125C45.053 81.375 46.7222 80.6836 47.9529 79.4529C49.1836 78.2222 49.875 76.553 49.875 74.8125V72.1875C49.875 71.8394 49.7367 71.5056 49.4906 71.2594C49.2444 71.0133 48.9106 70.875 48.5625 70.875ZM47.25 74.8125C47.25 75.8568 46.8352 76.8583 46.0967 77.5967C45.3583 78.3352 44.3568 78.75 43.3125 78.75H40.6875V77.4375C40.6875 77.0894 40.5492 76.7556 40.3031 76.5094C40.0569 76.2633 39.7231 76.125 39.375 76.125C39.0269 76.125 38.6931 76.2633 38.4469 76.5094C38.2008 76.7556 38.0625 77.0894 38.0625 77.4375V78.75H14.4375V77.4375C14.4375 77.0894 14.2992 76.7556 14.0531 76.5094C13.8069 76.2633 13.4731 76.125 13.125 76.125C12.7769 76.125 12.4431 76.2633 12.1969 76.5094C11.9508 76.7556 11.8125 77.0894 11.8125 77.4375V78.75H9.1875C8.14321 78.75 7.14169 78.3352 6.40327 77.5967C5.66484 76.8583 5.25 75.8568 5.25 74.8125V73.5H47.25V74.8125Z" fill="url(#paint0_linear)"/>
<path d="M70.875 10.5H73.5C73.8481 10.5 74.1819 10.3617 74.4281 10.1156C74.6742 9.86944 74.8125 9.5356 74.8125 9.1875C74.8125 8.8394 74.6742 8.50556 74.4281 8.25942C74.1819 8.01328 73.8481 7.875 73.5 7.875H70.875C69.8307 7.875 68.8292 8.28984 68.0908 9.02827C67.3523 9.76669 66.9375 10.7682 66.9375 11.8125V13.125H65.625C65.2769 13.125 64.9431 13.2633 64.6969 13.5094C64.4508 13.7556 64.3125 14.0894 64.3125 14.4375C64.3125 14.7856 64.4508 15.1194 64.6969 15.3656C64.9431 15.6117 65.2769 15.75 65.625 15.75H66.9375V19.6875C66.9375 20.0356 67.0758 20.3694 67.3219 20.6156C67.5681 20.8617 67.9019 21 68.25 21C68.5981 21 68.9319 20.8617 69.1781 20.6156C69.4242 20.3694 69.5625 20.0356 69.5625 19.6875V15.75H70.875C71.2231 15.75 71.5569 15.6117 71.8031 15.3656C72.0492 15.1194 72.1875 14.7856 72.1875 14.4375C72.1875 14.0894 72.0492 13.7556 71.8031 13.5094C71.5569 13.2633 71.2231 13.125 70.875 13.125H69.5625V11.8125C69.5625 11.4644 69.7008 11.1306 69.9469 10.8844C70.1931 10.6383 70.5269 10.5 70.875 10.5Z" fill="url(#paint1_linear)"/>
<path d="M77.4375 2.625H61.6875C60.6432 2.625 59.6417 3.03984 58.9033 3.77827C58.1648 4.51669 57.75 5.51821 57.75 6.5625V9.1875C57.75 9.5356 57.8883 9.86944 58.1344 10.1156C58.3806 10.3617 58.7144 10.5 59.0625 10.5C59.4106 10.5 59.7444 10.3617 59.9906 10.1156C60.2367 9.86944 60.375 9.5356 60.375 9.1875V6.5625C60.375 6.2144 60.5133 5.88056 60.7594 5.63442C61.0056 5.38828 61.3394 5.25 61.6875 5.25H77.4375C77.7856 5.25 78.1194 5.38828 78.3656 5.63442C78.6117 5.88056 78.75 6.2144 78.75 6.5625V22.3125C78.75 22.6606 78.6117 22.9944 78.3656 23.2406C78.1194 23.4867 77.7856 23.625 77.4375 23.625H61.6875C61.3394 23.625 61.0056 23.4867 60.7594 23.2406C60.5133 22.9944 60.375 22.6606 60.375 22.3125V14.4375C60.375 14.0894 60.2367 13.7556 59.9906 13.5094C59.7444 13.2633 59.4106 13.125 59.0625 13.125C58.7144 13.125 58.3806 13.2633 58.1344 13.5094C57.8883 13.7556 57.75 14.0894 57.75 14.4375V22.3125C57.75 23.3568 58.1648 24.3583 58.9033 25.0967C59.6417 25.8352 60.6432 26.25 61.6875 26.25H77.4375C78.4818 26.25 79.4833 25.8352 80.2217 25.0967C80.9602 24.3583 81.375 23.3568 81.375 22.3125V6.5625C81.375 5.51821 80.9602 4.51669 80.2217 3.77827C79.4833 3.03984 78.4818 2.625 77.4375 2.625Z" fill="url(#paint2_linear)"/>
<path d="M64.3125 55.125C64.3125 56.1634 64.6204 57.1784 65.1973 58.0418C65.7742 58.9051 66.5941 59.578 67.5534 59.9754C68.5127 60.3727 69.5683 60.4767 70.5867 60.2741C71.6051 60.0716 72.5406 59.5715 73.2748 58.8373C74.009 58.1031 74.5091 57.1676 74.7116 56.1492C74.9142 55.1308 74.8102 54.0752 74.4129 53.1159C74.0155 52.1566 73.3426 51.3367 72.4793 50.7598C71.6159 50.1829 70.6009 49.875 69.5625 49.875C68.1701 49.875 66.8348 50.4281 65.8502 51.4127C64.8656 52.3973 64.3125 53.7326 64.3125 55.125ZM72.1875 55.125C72.1875 55.6442 72.0336 56.1517 71.7451 56.5834C71.4567 57.0151 71.0467 57.3515 70.567 57.5502C70.0874 57.7489 69.5596 57.8009 69.0504 57.6996C68.5412 57.5983 68.0735 57.3483 67.7063 56.9812C67.3392 56.6141 67.0892 56.1463 66.9879 55.6371C66.8867 55.1279 66.9386 54.6001 67.1373 54.1205C67.336 53.6408 67.6725 53.2308 68.1041 52.9424C68.5358 52.654 69.0433 52.5 69.5625 52.5C70.2587 52.5 70.9264 52.7766 71.4187 53.2688C71.9109 53.7611 72.1875 54.4288 72.1875 55.125Z" fill="url(#paint3_linear)"/>
<path d="M77.4375 43.3125H61.6875C60.6432 43.3125 59.6417 43.7273 58.9033 44.4658C58.1648 45.2042 57.75 46.2057 57.75 47.25V63C57.75 64.0443 58.1648 65.0458 58.9033 65.7842C59.6417 66.5227 60.6432 66.9375 61.6875 66.9375H77.4375C78.4818 66.9375 79.4833 66.5227 80.2217 65.7842C80.9602 65.0458 81.375 64.0443 81.375 63V60.375C81.375 60.0269 81.2367 59.6931 80.9906 59.4469C80.7444 59.2008 80.4106 59.0625 80.0625 59.0625C79.7144 59.0625 79.3806 59.2008 79.1344 59.4469C78.8883 59.6931 78.75 60.0269 78.75 60.375V63C78.75 63.3481 78.6117 63.6819 78.3656 63.9281C78.1194 64.1742 77.7856 64.3125 77.4375 64.3125H61.6875C61.3394 64.3125 61.0056 64.1742 60.7594 63.9281C60.5133 63.6819 60.375 63.3481 60.375 63V47.25C60.375 46.9019 60.5133 46.5681 60.7594 46.3219C61.0056 46.0758 61.3394 45.9375 61.6875 45.9375H77.4375C77.7856 45.9375 78.1194 46.0758 78.3656 46.3219C78.6117 46.5681 78.75 46.9019 78.75 47.25V55.125C78.75 55.4731 78.8883 55.8069 79.1344 56.0531C79.3806 56.2992 79.7144 56.4375 80.0625 56.4375C80.4106 56.4375 80.7444 56.2992 80.9906 56.0531C81.2367 55.8069 81.375 55.4731 81.375 55.125V47.25C81.375 46.2057 80.9602 45.2042 80.2217 44.4658C79.4833 43.7273 78.4818 43.3125 77.4375 43.3125Z" fill="url(#paint4_linear)"/>
<path d="M32.1169 18.1781C32.3257 18.3075 32.5668 18.3757 32.8125 18.3749C33.018 18.3737 33.2203 18.3243 33.4031 18.2306L41.2781 14.2931C41.4931 14.1829 41.6735 14.0156 41.7995 13.8095C41.9255 13.6034 41.9922 13.3665 41.9922 13.1249C41.9922 12.8834 41.9255 12.6465 41.7995 12.4404C41.6735 12.2343 41.4931 12.067 41.2781 11.9568L33.4031 8.01931C33.2033 7.91863 32.9811 7.87069 32.7576 7.88006C32.534 7.88942 32.3166 7.95577 32.1259 8.07281C31.9352 8.18985 31.7776 8.35369 31.6681 8.54877C31.5585 8.74385 31.5007 8.9637 31.5 9.18743V17.0624C31.4996 17.2855 31.556 17.505 31.6639 17.7002C31.7718 17.8954 31.9277 18.0598 32.1169 18.1781ZM34.125 11.3137L37.7475 13.1249L34.125 14.9362V11.3137Z" fill="url(#paint5_linear)"/>
<path d="M35.4375 24.9375C37.7738 24.9375 40.0576 24.2447 42.0002 22.9467C43.9427 21.6488 45.4568 19.8039 46.3508 17.6455C47.2449 15.487 47.4788 13.1119 47.023 10.8205C46.5672 8.5291 45.4422 6.42431 43.7902 4.77231C42.1382 3.1203 40.0334 1.99527 37.742 1.53948C35.4506 1.08369 33.0755 1.31762 30.9171 2.21168C28.7586 3.10574 26.9137 4.61978 25.6158 6.56233C24.3178 8.50489 23.625 10.7887 23.625 13.125C23.625 16.2579 24.8695 19.2624 27.0848 21.4777C29.3001 23.693 32.3046 24.9375 35.4375 24.9375ZM35.4375 3.93751C37.2546 3.93751 39.0309 4.47634 40.5418 5.48588C42.0527 6.49541 43.2303 7.93031 43.9256 9.6091C44.621 11.2879 44.803 13.1352 44.4485 14.9174C44.094 16.6996 43.2189 18.3367 41.934 19.6215C40.6491 20.9064 39.0121 21.7815 37.2299 22.136C35.4477 22.4905 33.6004 22.3085 31.9216 21.6131C30.2428 20.9178 28.8079 19.7402 27.7984 18.2293C26.7888 16.7184 26.25 14.9421 26.25 13.125C26.25 10.6883 27.218 8.35145 28.941 6.62846C30.6639 4.90547 33.0008 3.93751 35.4375 3.93751Z" fill="url(#paint6_linear)"/>
<path d="M48.5625 30.1875C48.7662 30.1875 48.9672 30.1401 49.1494 30.0489C49.3317 29.9578 49.4902 29.8255 49.6125 29.6625L53.55 24.4125C53.7588 24.134 53.8485 23.784 53.7993 23.4394C53.75 23.0948 53.5659 22.7839 53.2875 22.575C53.009 22.3661 52.6589 22.2765 52.3143 22.3257C51.9698 22.3749 51.6588 22.559 51.45 22.8375L47.5125 28.0875C47.3036 28.366 47.2139 28.716 47.2632 29.0606C47.3124 29.4052 47.4965 29.7162 47.775 29.925C48.0022 30.0954 48.2785 30.1875 48.5625 30.1875Z" fill="url(#paint7_linear)"/>
<path d="M51.45 34.9125C51.5722 35.0755 51.7308 35.2078 51.913 35.2989C52.0953 35.3901 52.2962 35.4375 52.5 35.4375C52.784 35.4375 53.0603 35.3454 53.2875 35.175L58.5375 31.2375C58.8159 31.0286 59 30.7177 59.0493 30.3731C59.0985 30.0285 59.0088 29.6785 58.8 29.4C58.5911 29.1215 58.2802 28.9374 57.9356 28.8882C57.591 28.839 57.2409 28.9286 56.9625 29.1375L51.7125 33.075C51.434 33.2839 51.2499 33.5948 51.2007 33.9394C51.1514 34.284 51.2411 34.634 51.45 34.9125Z" fill="url(#paint8_linear)"/>
<path d="M64.3124 37.8001C64.2812 37.6261 64.2152 37.4602 64.1183 37.3124C64.0214 37.1645 63.8957 37.0377 63.7486 36.9397C63.6015 36.8416 63.4361 36.7743 63.2624 36.7417C63.0886 36.7091 62.9101 36.712 62.7374 36.7501L56.1749 38.0626C56.0026 38.0799 55.8353 38.1309 55.6827 38.2128C55.53 38.2947 55.395 38.4058 55.2853 38.5399C55.0638 38.8106 54.9589 39.1583 54.9937 39.5064C55.0285 39.8545 55.2002 40.1745 55.4709 40.396C55.7417 40.6175 56.0894 40.7224 56.4374 40.6876H56.7L63.2624 39.3751C63.4365 39.3439 63.6024 39.2779 63.7502 39.181C63.8981 39.0841 64.0248 38.9584 64.1229 38.8113C64.221 38.6642 64.2883 38.4988 64.3209 38.325C64.3534 38.1513 64.3506 37.9727 64.3124 37.8001Z" fill="url(#paint9_linear)"/>
<path d="M3.9375 38.0625H19.6875C20.0356 38.0625 20.3694 37.9242 20.6156 37.6781C20.8617 37.4319 21 37.0981 21 36.75V15.75C21 15.4019 20.8617 15.0681 20.6156 14.8219C20.3694 14.5758 20.0356 14.4375 19.6875 14.4375H3.9375C3.5894 14.4375 3.25556 14.5758 3.00942 14.8219C2.76328 15.0681 2.625 15.4019 2.625 15.75V36.75C2.625 37.0981 2.76328 37.4319 3.00942 37.6781C3.25556 37.9242 3.5894 38.0625 3.9375 38.0625ZM5.25 17.0625H18.375V35.4375H5.25V17.0625Z" fill="url(#paint10_linear)"/>
<path d="M14.4375 19.6875H11.8125C11.4644 19.6875 11.1306 19.8258 10.8844 20.0719C10.6383 20.3181 10.5 20.6519 10.5 21C10.5 21.3481 10.6383 21.6819 10.8844 21.9281C11.1306 22.1742 11.4644 22.3125 11.8125 22.3125H14.4375C14.7856 22.3125 15.1194 22.1742 15.3656 21.9281C15.6117 21.6819 15.75 21.3481 15.75 21C15.75 20.6519 15.6117 20.3181 15.3656 20.0719C15.1194 19.8258 14.7856 19.6875 14.4375 19.6875Z" fill="url(#paint11_linear)"/>
<path d="M14.4375 24.9375H9.1875C8.8394 24.9375 8.50556 25.0758 8.25942 25.3219C8.01328 25.5681 7.875 25.9019 7.875 26.25C7.875 26.5981 8.01328 26.9319 8.25942 27.1781C8.50556 27.4242 8.8394 27.5625 9.1875 27.5625H14.4375C14.7856 27.5625 15.1194 27.4242 15.3656 27.1781C15.6117 26.9319 15.75 26.5981 15.75 26.25C15.75 25.9019 15.6117 25.5681 15.3656 25.3219C15.1194 25.0758 14.7856 24.9375 14.4375 24.9375Z" fill="url(#paint12_linear)"/>
<path d="M14.4375 30.1875H9.1875C8.8394 30.1875 8.50556 30.3258 8.25942 30.5719C8.01328 30.8181 7.875 31.1519 7.875 31.5C7.875 31.8481 8.01328 32.1819 8.25942 32.4281C8.50556 32.6742 8.8394 32.8125 9.1875 32.8125H14.4375C14.7856 32.8125 15.1194 32.6742 15.3656 32.4281C15.6117 32.1819 15.75 31.8481 15.75 31.5C15.75 31.1519 15.6117 30.8181 15.3656 30.5719C15.1194 30.3258 14.7856 30.1875 14.4375 30.1875Z" fill="url(#paint13_linear)"/>
<path d="M47.4075 37.6689C47.3213 37.5189 47.2064 37.3874 47.0694 37.2819C46.9324 37.1763 46.7759 37.0988 46.609 37.0537C46.442 37.0086 46.2678 36.9968 46.0963 37.019C45.9247 37.0413 45.7593 37.0971 45.6093 37.1832C45.4594 37.2694 45.3279 37.3843 45.2223 37.5213C45.1167 37.6583 45.0392 37.8148 44.9941 37.9817C44.949 38.1487 44.9373 38.3229 44.9595 38.4944C44.9817 38.666 45.0375 38.8314 45.1237 38.9814L50.9118 48.9958L29.9118 56.8708C29.9118 56.8708 29.9118 56.8708 29.82 56.8708H29.715L26.3025 58.8395L24.0318 60.152C23.7329 60.3248 23.4028 60.4369 23.0605 60.482C22.7181 60.527 22.3703 60.5041 22.0368 60.4145C21.3669 60.2335 20.7959 59.7947 20.4487 59.1939L17.8237 54.6526C17.5149 54.0585 17.4448 53.3688 17.6278 52.7246C17.8108 52.0805 18.233 51.5307 18.8081 51.1876L23.3493 48.5626L26.6306 54.2458C26.7462 54.446 26.9127 54.6122 27.1132 54.7275C27.3138 54.8427 27.5412 54.9029 27.7725 54.902C28.0033 54.9029 28.2303 54.8429 28.4305 54.7281C28.6308 54.6133 28.7972 54.4477 28.913 54.248C29.0288 54.0483 29.09 53.8216 29.0902 53.5908C29.0904 53.36 29.0298 53.1332 28.9143 52.9333L25.5281 47.0795L42 33.4951L42.5381 34.427C42.6243 34.577 42.7391 34.7085 42.8761 34.814C43.0131 34.9196 43.1696 34.9971 43.3366 35.0422C43.5035 35.0873 43.6778 35.0991 43.8493 35.0768C44.0208 35.0546 44.1863 34.9988 44.3362 34.9126C44.4862 34.8264 44.6177 34.7116 44.7232 34.5746C44.8288 34.4376 44.9063 34.2811 44.9514 34.1141C44.9965 33.9472 45.0083 33.7729 44.986 33.6014C44.9638 33.4299 44.908 33.2645 44.8218 33.1145L43.5093 30.8439C43.4131 30.6794 43.2823 30.5379 43.1259 30.4291C42.9695 30.3203 42.7913 30.2469 42.6037 30.2139C42.4151 30.1783 42.2209 30.1846 42.035 30.2322C41.849 30.2798 41.6758 30.3676 41.5275 30.4895L23.1525 45.6357L17.5612 48.8645C16.5578 49.4489 15.7765 50.3495 15.3395 51.4254C14.9025 52.5012 14.8346 53.6915 15.1462 54.8101L13.8337 55.5583C13.1574 55.9466 12.6117 56.527 12.2658 57.2259C11.9198 57.9248 11.7891 58.7106 11.8903 59.4839C11.9916 60.2571 12.3201 60.9829 12.8343 61.5692C13.3485 62.1554 14.0253 62.5758 14.7787 62.777C15.1127 62.8655 15.4569 62.9096 15.8025 62.9082C16.4929 62.9054 17.171 62.7246 17.7712 62.3832L19.0837 61.6351C19.7142 62.2864 20.5071 62.7577 21.3806 63.0001C21.8291 63.1256 22.293 63.1874 22.7587 63.1839C23.6813 63.186 24.5876 62.9413 25.3837 62.4751L26.5256 61.8189L29.1506 66.3732C29.6723 67.2752 30.5302 67.9336 31.5364 68.2042C32.5425 68.4748 33.615 68.3356 34.5187 67.817C34.9671 67.5587 35.3601 67.2145 35.6753 66.8042C35.9906 66.3938 36.2219 65.9254 36.3559 65.4256C36.49 64.9258 36.5243 64.4045 36.4568 63.8915C36.3893 63.3785 36.2213 62.8838 35.9625 62.4357L33.5737 58.2751L53.2612 50.8857C53.4398 50.8186 53.6015 50.7134 53.7353 50.5774C53.869 50.4414 53.9715 50.2779 54.0356 50.0982C54.0995 49.9207 54.1243 49.7315 54.1085 49.5435C54.0926 49.3555 54.0364 49.1732 53.9437 49.0089L47.4075 37.6689ZM16.4062 60.0995C16.2567 60.1859 16.0917 60.242 15.9205 60.2645C15.7494 60.287 15.5754 60.2755 15.4087 60.2307C15.0724 60.1434 14.7845 59.9263 14.6081 59.627C14.5217 59.4775 14.4656 59.3125 14.4431 59.1413C14.4206 58.9702 14.432 58.7962 14.4768 58.6295C14.5216 58.4619 14.5992 58.3048 14.7051 58.1674C14.811 58.03 14.9431 57.9149 15.0937 57.8289L16.2356 57.1726L17.5481 59.4432L16.4062 60.0995ZM33.6787 63.7745C33.7651 63.924 33.8212 64.089 33.8437 64.2602C33.8662 64.4313 33.8548 64.6053 33.81 64.772C33.7164 65.1056 33.4946 65.3887 33.1931 65.5595C32.8933 65.7317 32.5377 65.7787 32.2034 65.6902C31.8692 65.6017 31.5834 65.385 31.4081 65.087L28.7831 60.5326L30.9618 59.2857H31.0668L33.6787 63.7745Z" fill="url(#paint14_linear)"/>
<defs>
<linearGradient id="paint0_linear" x1="26.25" y1="42" x2="26.25" y2="81.375" gradientUnits="userSpaceOnUse">
<stop stop-color="#FF174B"/>
<stop offset="1" stop-color="#D2021B"/>
</linearGradient>
<linearGradient id="paint1_linear" x1="69.5625" y1="7.875" x2="69.5625" y2="21" gradientUnits="userSpaceOnUse">
<stop stop-color="#FF174B"/>
<stop offset="1" stop-color="#D2021B"/>
</linearGradient>
<linearGradient id="paint2_linear" x1="69.5625" y1="2.625" x2="69.5625" y2="26.25" gradientUnits="userSpaceOnUse">
<stop stop-color="#FF174B"/>
<stop offset="1" stop-color="#D2021B"/>
</linearGradient>
<linearGradient id="paint3_linear" x1="69.5625" y1="49.875" x2="69.5625" y2="60.375" gradientUnits="userSpaceOnUse">
<stop stop-color="#FF174B"/>
<stop offset="1" stop-color="#D2021B"/>
</linearGradient>
<linearGradient id="paint4_linear" x1="69.5625" y1="43.3125" x2="69.5625" y2="66.9375" gradientUnits="userSpaceOnUse">
<stop stop-color="#FF174B"/>
<stop offset="1" stop-color="#D2021B"/>
</linearGradient>
<linearGradient id="paint5_linear" x1="36.7461" y1="7.87891" x2="36.7461" y2="18.3749" gradientUnits="userSpaceOnUse">
<stop stop-color="#FF174B"/>
<stop offset="1" stop-color="#D2021B"/>
</linearGradient>
<linearGradient id="paint6_linear" x1="35.4375" y1="1.3125" x2="35.4375" y2="24.9375" gradientUnits="userSpaceOnUse">
<stop stop-color="#FF174B"/>
<stop offset="1" stop-color="#D2021B"/>
</linearGradient>
<linearGradient id="paint7_linear" x1="50.5312" y1="22.3125" x2="50.5312" y2="30.1875" gradientUnits="userSpaceOnUse">
<stop stop-color="#FF174B"/>
<stop offset="1" stop-color="#D2021B"/>
</linearGradient>
<linearGradient id="paint8_linear" x1="55.125" y1="28.875" x2="55.125" y2="35.4375" gradientUnits="userSpaceOnUse">
<stop stop-color="#FF174B"/>
<stop offset="1" stop-color="#D2021B"/>
</linearGradient>
<linearGradient id="paint9_linear" x1="59.6652" y1="36.7192" x2="59.6652" y2="40.6942" gradientUnits="userSpaceOnUse">
<stop stop-color="#FF174B"/>
<stop offset="1" stop-color="#D2021B"/>
</linearGradient>
<linearGradient id="paint10_linear" x1="11.8125" y1="14.4375" x2="11.8125" y2="38.0625" gradientUnits="userSpaceOnUse">
<stop stop-color="#FF174B"/>
<stop offset="1" stop-color="#D2021B"/>
</linearGradient>
<linearGradient id="paint11_linear" x1="13.125" y1="19.6875" x2="13.125" y2="22.3125" gradientUnits="userSpaceOnUse">
<stop stop-color="#FF174B"/>
<stop offset="1" stop-color="#D2021B"/>
</linearGradient>
<linearGradient id="paint12_linear" x1="11.8125" y1="24.9375" x2="11.8125" y2="27.5625" gradientUnits="userSpaceOnUse">
<stop stop-color="#FF174B"/>
<stop offset="1" stop-color="#D2021B"/>
</linearGradient>
<linearGradient id="paint13_linear" x1="11.8125" y1="30.1875" x2="11.8125" y2="32.8125" gradientUnits="userSpaceOnUse">
<stop stop-color="#FF174B"/>
<stop offset="1" stop-color="#D2021B"/>
</linearGradient>
<linearGradient id="paint14_linear" x1="32.9851" y1="30.1912" x2="32.9851" y2="68.3393" gradientUnits="userSpaceOnUse">
<stop stop-color="#FF174B"/>
<stop offset="1" stop-color="#D2021B"/>
</linearGradient>
</defs>
</svg>
