<svg width="191" height="562" viewBox="0 0 191 562" fill="none" xmlns="http://www.w3.org/2000/svg">
<path d="M90.9726 548.847L90.5371 516.415L63.6544 534.563L90.9726 548.847Z" stroke="#FFA800" stroke-width="2"/>
<path d="M49.1456 502.542L39.3476 491.267L35.2914 505.643L49.1456 502.542Z" stroke="#FFA800" stroke-width="2"/>
<circle cx="0.5" cy="101.5" r="100.5" stroke="#FF174B" stroke-linecap="round" stroke-dasharray="10 10"/>
<g filter="url(#filter0_d)">
<rect x="-23" y="253.589" width="72" height="72" rx="12" transform="rotate(-15 -23 253.589)" fill="#55ACEE"/>
</g>
<path d="M36.7017 266.058C36.5963 265.632 36.4795 265.223 36.3604 264.821C37.7918 262.951 38.8589 260.826 39.5872 258.523L39.5867 258.521C38.1591 259.756 36.5648 260.764 34.8293 261.532C36.3811 259.803 37.3275 257.52 37.4308 255.069C35.9836 256.679 34.2761 258.013 32.3581 259.04C30.2559 257.629 27.6362 257.139 25.0934 257.876C20.16 259.306 17.2612 264.788 18.5763 270.097C18.7655 270.861 19.0073 271.578 19.3272 272.235C11.8227 273.99 4.31535 272.051 -1.53882 267.476C-1.94907 269.142 -1.99275 270.925 -1.5526 272.702C-0.725674 276.04 1.59545 278.538 4.39082 279.565C2.95095 279.951 1.43573 279.907 0.0706385 279.544L0.0968439 279.65C1.25716 284.334 5.30888 287.33 9.5826 287.053C8.32061 287.851 6.63964 288.321 5.59798 288.371C7.69699 291.853 11.6705 293.71 15.5872 292.674C13.1907 296.117 9.72312 298.778 5.55575 299.986C4.82587 300.198 4.11624 300.366 3.39156 300.473C8.02161 302.081 13.0876 302.299 18.1333 300.836C34.5311 296.084 39.8565 278.793 36.7017 266.058Z" fill="white"/>
<g filter="url(#filter1_d)">
<rect x="81.224" y="251.635" width="72" height="72" rx="12" transform="rotate(-15 81.224 251.635)" fill="white"/>
</g>
<path d="M100.886 262.924C98.26 267.669 99.9592 271.414 102.919 283.428C105.376 293.405 106.119 303.903 115.704 303.66C118.696 303.581 143.611 296.396 146.238 294.85C149.746 292.79 152.038 288.834 151.134 283.349C151.008 282.583 145.02 258.276 144.772 257.529C142.921 251.943 138.633 249.652 133.887 250.307C132.799 250.455 132.578 250.471 127.188 252.015C108.082 257.535 103.681 257.882 100.886 262.924Z" fill="url(#paint0_linear)"/>
<path d="M121.31 260.1C114.489 262.067 107.861 263.321 106.97 270.458C106.602 273.405 107.599 276.808 108.814 281.741C109.88 286.07 110.745 290.178 112.404 292.519C116.456 298.234 122.833 295.735 129.603 293.783C136.134 291.899 143.037 290.645 143.94 283.423C144.304 280.449 143.317 277.098 142.096 272.142C140.476 265.563 139.788 261.212 135.849 258.933C131.86 256.623 127.642 258.274 121.302 260.102L121.31 260.1ZM120.566 263.565C134.787 259.439 136.203 257.317 140.68 279.833C142.261 287.797 136.132 288.641 128.859 290.738C115.598 294.563 115.122 294.289 111.816 280.867C108.471 267.289 109.47 266.773 120.565 263.561L120.566 263.565ZM131.63 263.368C130.528 263.686 129.857 264.848 130.131 265.964C130.406 267.079 131.523 267.726 132.626 267.408C133.728 267.09 134.399 265.927 134.125 264.812C133.85 263.696 132.733 263.05 131.63 263.368ZM123.328 268.292C118.607 269.654 115.735 274.63 116.911 279.406C118.088 284.181 122.868 286.949 127.588 285.587C132.308 284.226 135.179 279.252 134.003 274.476C132.826 269.701 128.048 266.931 123.328 268.292ZM124.075 271.327C131.41 269.212 134.185 280.436 126.841 282.554C119.508 284.669 116.731 273.445 124.075 271.327Z" fill="white"/>
<path d="M140.969 495.87C152.55 495.87 161.938 485.7 161.938 473.155C161.938 460.61 152.55 450.44 140.969 450.44C129.388 450.44 120 460.61 120 473.155C120 485.7 129.388 495.87 140.969 495.87Z" fill="#ED5168"/>
<path d="M140.969 466.853C140.031 460.699 128.915 460.229 128.915 469.46C128.915 477.641 140.969 485.182 140.969 485.182C140.969 485.182 153.023 477.541 153.023 469.46C153.023 460.229 141.907 460.699 140.969 466.853Z" fill="white"/>
<g filter="url(#filter2_d)">
<rect x="58.5439" y="140.635" width="72" height="72" rx="12" transform="rotate(-15 58.5439 140.635)" fill="white"/>
</g>
<path d="M103.701 147.957L107.669 146.807L105.817 139.331C105.107 139.428 102.696 139.881 99.9541 140.676C87.3995 144.314 94.6247 158.702 94.6829 161.1L88.3676 162.931L90.4378 171.288L96.7513 169.458L101.96 190.486L109.701 188.242L104.493 167.216L110.551 165.46L109.442 156.825L102.42 158.86C101.391 153.229 98.608 149.433 103.701 147.957Z" fill="#1877F2"/>
<g filter="url(#filter3_d)">
<rect x="21" y="387.635" width="72" height="72" rx="12" transform="rotate(-15 21 387.635)" fill="#673AB7"/>
</g>
<path d="M42.4494 405.798L50.1253 438.042L60.6902 434.859L62.1299 440.907L67.8984 439.169L72.2177 431.384L80.8641 428.78L89.5165 413.219L82.7989 385L43.4095 396.866L42.4494 405.798ZM48.2108 399.736L79.9149 390.185L85.1929 412.356L80.1461 421.436L69.5774 424.62L65.2558 432.395L63.8181 426.355L55.168 428.961L48.2108 399.736Z" fill="white"/>
<path d="M60.6112 404.471L64.5113 403.304L67.4343 415.498L63.5342 416.664L60.6112 404.471Z" fill="white"/>
<path d="M71.0215 401.454L74.9234 400.286L77.8464 412.48L73.9445 413.647L71.0215 401.454Z" fill="white"/>
<defs>
<filter id="filter0_d" x="-44.306" y="220.648" width="130.794" height="130.794" filterUnits="userSpaceOnUse" color-interpolation-filters="sRGB">
<feFlood flood-opacity="0" result="BackgroundImageFix"/>
<feColorMatrix in="SourceAlpha" type="matrix" values="0 0 0 0 0 0 0 0 0 0 0 0 0 0 0 0 0 0 127 0"/>
<feOffset dy="7"/>
<feGaussianBlur stdDeviation="12"/>
<feColorMatrix type="matrix" values="0 0 0 0 0.129412 0 0 0 0 0.129412 0 0 0 0 0.129412 0 0 0 0.08 0"/>
<feBlend mode="normal" in2="BackgroundImageFix" result="effect1_dropShadow"/>
<feBlend mode="normal" in="SourceGraphic" in2="effect1_dropShadow" result="shape"/>
</filter>
<filter id="filter1_d" x="59.918" y="218.694" width="130.794" height="130.794" filterUnits="userSpaceOnUse" color-interpolation-filters="sRGB">
<feFlood flood-opacity="0" result="BackgroundImageFix"/>
<feColorMatrix in="SourceAlpha" type="matrix" values="0 0 0 0 0 0 0 0 0 0 0 0 0 0 0 0 0 0 127 0"/>
<feOffset dy="7"/>
<feGaussianBlur stdDeviation="12"/>
<feColorMatrix type="matrix" values="0 0 0 0 0.129412 0 0 0 0 0.129412 0 0 0 0 0.129412 0 0 0 0.08 0"/>
<feBlend mode="normal" in2="BackgroundImageFix" result="effect1_dropShadow"/>
<feBlend mode="normal" in="SourceGraphic" in2="effect1_dropShadow" result="shape"/>
</filter>
<filter id="filter2_d" x="37.2379" y="107.694" width="130.794" height="130.794" filterUnits="userSpaceOnUse" color-interpolation-filters="sRGB">
<feFlood flood-opacity="0" result="BackgroundImageFix"/>
<feColorMatrix in="SourceAlpha" type="matrix" values="0 0 0 0 0 0 0 0 0 0 0 0 0 0 0 0 0 0 127 0"/>
<feOffset dy="7"/>
<feGaussianBlur stdDeviation="12"/>
<feColorMatrix type="matrix" values="0 0 0 0 0.129412 0 0 0 0 0.129412 0 0 0 0 0.129412 0 0 0 0.08 0"/>
<feBlend mode="normal" in2="BackgroundImageFix" result="effect1_dropShadow"/>
<feBlend mode="normal" in="SourceGraphic" in2="effect1_dropShadow" result="shape"/>
</filter>
<filter id="filter3_d" x="-0.30603" y="354.694" width="130.794" height="130.794" filterUnits="userSpaceOnUse" color-interpolation-filters="sRGB">
<feFlood flood-opacity="0" result="BackgroundImageFix"/>
<feColorMatrix in="SourceAlpha" type="matrix" values="0 0 0 0 0 0 0 0 0 0 0 0 0 0 0 0 0 0 127 0"/>
<feOffset dy="7"/>
<feGaussianBlur stdDeviation="12"/>
<feColorMatrix type="matrix" values="0 0 0 0 0.129412 0 0 0 0 0.129412 0 0 0 0 0.129412 0 0 0 0.08 0"/>
<feBlend mode="normal" in2="BackgroundImageFix" result="effect1_dropShadow"/>
<feBlend mode="normal" in="SourceGraphic" in2="effect1_dropShadow" result="shape"/>
</filter>
<linearGradient id="paint0_linear" x1="110.725" y1="302.491" x2="143.914" y2="253.946" gradientUnits="userSpaceOnUse">
<stop stop-color="#FFDD55"/>
<stop offset="0.5" stop-color="#FF543E"/>
<stop offset="1" stop-color="#C837AB"/>
</linearGradient>
</defs>
</svg>
